<?xml version="1.0" encoding="utf-8"?>
<!-- Generator: Adobe Illustrator 22.0.0, SVG Export Plug-In . SVG Version: 6.00 Build 0)  -->
<svg version="1.1" id="Layer_1" xmlns="http://www.w3.org/2000/svg" xmlns:xlink="http://www.w3.org/1999/xlink" x="0px" y="0px"
	 viewBox="0 0 25.1 16.4" style="enable-background:new 0 0 25.1 16.4;" xml:space="preserve">
<style type="text/css">
	.st0{fill:#8395A7;}
</style>
<g transform="translate(-902.231 -407.694)">
	<path class="st0" d="M927.2,413.8c-0.9-1.2-2.1-2.2-3.3-3.1c-5.4-4.1-12.8-4.1-18.2,0c-1.2,0.9-2.3,1.9-3.3,3.1
		c-0.2,0.3-0.2,0.7,0,1.1c0.8,0.9,1.6,1.8,2.6,2.5l-1.2,2.4c-0.2,0.4-0.1,1,0.4,1.2c0.4,0.2,1,0.1,1.2-0.4l0,0l1-2.1
		c0.9,0.6,1.8,1.1,2.8,1.5l-1,2.1c-0.2,0.4,0,1,0.4,1.2s0.9,0,1.2-0.4l0,0l1.1-2.3c1,0.3,2,0.4,3,0.5v2.1c0,0.5,0.4,0.9,0.9,0.9
		s0.9-0.4,0.9-0.9v-2.1c1-0.1,2-0.2,3-0.5l1.1,2.3c0.2,0.4,0.8,0.6,1.2,0.4s0.6-0.7,0.4-1.2l0,0l-1-2.1c1-0.4,1.9-0.9,2.8-1.5l1,2.1
		c0.2,0.4,0.8,0.6,1.2,0.3c0.4-0.2,0.6-0.7,0.4-1.1l-1.2-2.4c0.9-0.7,1.8-1.6,2.6-2.5C927.4,414.6,927.4,414.2,927.2,413.8z
		 M922.8,416.6c-4.7,3.6-11.3,3.6-16,0c-0.9-0.7-1.8-1.4-2.5-2.2c0.8-0.8,1.6-1.6,2.5-2.2c4.7-3.6,11.3-3.6,16,0
		c0.9,0.7,1.8,1.4,2.5,2.2C924.6,415.2,923.7,416,922.8,416.6L922.8,416.6z"/>
</g>
</svg>
